<?xml version="1.0" encoding="UTF-8" standalone="no"?><!DOCTYPE svg PUBLIC "-//W3C//DTD SVG 1.1//EN" "http://www.w3.org/Graphics/SVG/1.1/DTD/svg11.dtd"><svg width="100%" height="100%" viewBox="0 0 618 619" version="1.1" xmlns="http://www.w3.org/2000/svg" xmlns:xlink="http://www.w3.org/1999/xlink" xml:space="preserve" xmlns:serif="http://www.serif.com/" style="fill-rule:evenodd;clip-rule:evenodd;stroke-linejoin:round;stroke-miterlimit:2;"><rect id="gray" x="-0" y="0" width="618" height="619" style="fill:none;"/><path d="M0.242,0.242l0,608.602l608.602,0l0,-608.602l-608.602,0" style="fill:#aeaeae;fill-opacity:0.5;fill-rule:nonzero;"/><g><clipPath id="_clip1"><path d="M608.844,0l-2.492,96.871l-12.77,496.711l-593.582,15.262l0,-608.844l608.844,0Z"/></clipPath><g clip-path="url(#_clip1)"><g><clipPath id="_clip2"><path d="M608.844,0l-2.492,96.871l-12.77,496.711l-593.582,15.262l0,-608.844l608.844,0"/></clipPath><g clip-path="url(#_clip2)"><path d="M304.422,913.262l608.84,-608.84l-608.84,-608.84l-608.84,608.84l608.84,608.84Z" style="fill:url(#_Linear3);fill-rule:nonzero;"/></g></g></g></g><g><clipPath id="_clip4"><path d="M608.844,0l-2.492,96.871l-606.352,0l0,-96.871l608.844,0Z"/></clipPath><g clip-path="url(#_clip4)"><g><clipPath id="_clip5"><path d="M608.844,0l-2.492,96.871l-606.352,0l0,-96.871l608.844,0"/></clipPath><g clip-path="url(#_clip5)"><rect x="0" y="0" width="608.844" height="96.871" style="fill:url(#_Linear6);fill-rule:nonzero;"/></g></g></g></g><defs><linearGradient id="_Linear3" x1="0" y1="0" x2="1" y2="0" gradientUnits="userSpaceOnUse" gradientTransform="matrix(-608.840213,-608.840213,608.840213,-608.840213,608.841901,608.841901)"><stop offset="0" style="stop-color:#e4e5e3;stop-opacity:1"/><stop offset="0.25" style="stop-color:#e6e7e5;stop-opacity:1"/><stop offset="0.63" style="stop-color:#eaebe9;stop-opacity:1"/><stop offset="0.81" style="stop-color:#ecedec;stop-opacity:1"/><stop offset="0.94" style="stop-color:#eeefed;stop-opacity:1"/><stop offset="1" style="stop-color:#eeefee;stop-opacity:1"/></linearGradient><linearGradient id="_Linear6" x1="0" y1="0" x2="1" y2="0" gradientUnits="userSpaceOnUse" gradientTransform="matrix(608.83976,0,0,608.83976,0.001892,48.441875)"><stop offset="0" style="stop-color:#f9f9f9;stop-opacity:1"/><stop offset="0.38" style="stop-color:#f8f8f7;stop-opacity:1"/><stop offset="1" style="stop-color:#f5f5f4;stop-opacity:1"/></linearGradient></defs></svg>